<svg width="53" height="77" viewBox="0 0 53 77" fill="none" xmlns="http://www.w3.org/2000/svg">
<mask id="path-1-outside-1_682_2" maskUnits="userSpaceOnUse" x="0" y="0" width="53" height="77" fill="black">
<rect fill="white" width="53" height="77"/>
<path d="M17.6992 0.999994H34.3992C38.9992 0.999994 42.9326 2.66666 46.1992 6C49.4659 9.26666 51.0992 13.1333 51.0992 17.6V59.4C51.0992 63.9333 49.4326 67.8333 46.0992 71.1C42.8326 74.3667 38.9326 76 34.3992 76H17.6992C13.1659 76 9.26589 74.3667 5.99922 71.1C2.73255 67.7667 1.09922 63.8667 1.09922 59.4V17.6C1.09922 13.1333 2.69922 9.26666 5.89922 6C9.16589 2.66666 13.0992 0.999994 17.6992 0.999994ZM17.8992 60.6C18.2992 62.9333 19.1659 64.7 20.4992 65.9C21.8992 67.0333 23.7659 67.6 26.0992 67.6C28.4326 67.6 30.3992 66.7667 31.9992 65.1C33.5992 63.4333 34.3992 61.5333 34.3992 59.4V31L17.8992 60.6ZM34.2992 16.2C33.0992 11.6667 30.3659 9.4 26.0992 9.4C23.6992 9.4 21.6992 10.2 20.0992 11.8C18.4992 13.4 17.6992 15.3333 17.6992 17.6V46L34.2992 16.2Z"/>
</mask>
<path d="M46.1992 6L45.485 6.69996L45.4921 6.7071L46.1992 6ZM46.0992 71.1L45.3993 70.3858L45.3921 70.3929L46.0992 71.1ZM5.99922 71.1L5.28497 71.8L5.29211 71.8071L5.99922 71.1ZM5.89922 6L5.18501 5.30007L5.18486 5.30022L5.89922 6ZM17.8992 60.6L17.0258 60.1131L16.854 60.4212L16.9136 60.769L17.8992 60.6ZM20.4992 65.9L19.8303 66.6433L19.8497 66.6608L19.87 66.6772L20.4992 65.9ZM31.9992 65.1L31.2778 64.4075L31.2778 64.4075L31.9992 65.1ZM34.3992 31H35.3992V27.1522L33.5258 30.5131L34.3992 31ZM34.2992 16.2L35.1728 16.6866L35.3692 16.3342L35.2659 15.9441L34.2992 16.2ZM20.0992 11.8L20.8063 12.5071L20.8063 12.5071L20.0992 11.8ZM17.6992 46H16.6992V49.8501L18.5728 46.4866L17.6992 46ZM17.6992 1.99999H34.3992V-5.96046e-06H17.6992V1.99999ZM34.3992 1.99999C38.7261 1.99999 42.4033 3.55536 45.485 6.69992L46.9134 5.30007C43.4618 1.77797 39.2723 -5.96046e-06 34.3992 -5.96046e-06V1.99999ZM45.4921 6.7071C48.5784 9.79342 50.0992 13.4085 50.0992 17.6H52.0992C52.0992 12.8581 50.3534 8.73991 46.9063 5.29289L45.4921 6.7071ZM50.0992 17.6V59.4H52.0992V17.6H50.0992ZM50.0992 59.4C50.0992 63.6558 48.5471 67.301 45.3993 70.3858L46.7992 71.8142C50.3181 68.3657 52.0992 64.2108 52.0992 59.4H50.0992ZM45.3921 70.3929C42.309 73.476 38.6617 75 34.3992 75V77C39.2034 77 43.3561 75.2573 46.8063 71.8071L45.3921 70.3929ZM34.3992 75H17.6992V77H34.3992V75ZM17.6992 75C13.4367 75 9.78947 73.476 6.70633 70.3929L5.29211 71.8071C8.74231 75.2573 12.8951 77 17.6992 77V75ZM6.71343 70.4001C3.62082 67.2443 2.09922 63.5922 2.09922 59.4H0.0992194C0.0992194 64.1411 1.84429 68.289 5.28501 71.7999L6.71343 70.4001ZM2.09922 59.4V17.6H0.0992194V59.4H2.09922ZM2.09922 17.6C2.09922 13.4018 3.59181 9.7845 6.61358 6.69977L5.18486 5.30022C1.80663 8.74883 0.0992194 12.8648 0.0992194 17.6H2.09922ZM6.61343 6.69992C9.69511 3.55536 13.3723 1.99999 17.6992 1.99999V-5.96046e-06C12.8261 -5.96046e-06 8.63666 1.77797 5.18501 5.30007L6.61343 6.69992ZM16.9136 60.769C17.3394 63.2528 18.2831 65.2509 19.8303 66.6433L21.1682 65.1567C20.0486 64.1491 19.259 62.6138 18.8848 60.431L16.9136 60.769ZM19.87 66.6772C21.4949 67.9926 23.6054 68.6 26.0992 68.6V66.6C23.9264 66.6 22.3036 66.0741 21.1284 65.1228L19.87 66.6772ZM26.0992 68.6C28.7018 68.6 30.9299 67.6578 32.7206 65.7925L31.2778 64.4075C29.8685 65.8755 28.1633 66.6 26.0992 66.6V68.6ZM32.7206 65.7925C34.4831 63.9566 35.3992 61.8141 35.3992 59.4H33.3992C33.3992 61.2526 32.7153 62.9101 31.2778 64.4075L32.7206 65.7925ZM35.3992 59.4V31H33.3992V59.4H35.3992ZM33.5258 30.5131L17.0258 60.1131L18.7727 61.0869L35.2727 31.4869L33.5258 30.5131ZM35.2659 15.9441C34.6296 13.5401 33.5588 11.6333 31.9876 10.3302C30.4071 9.01961 28.4167 8.4 26.0992 8.4V10.4C28.0484 10.4 29.558 10.9137 30.7109 11.8698C31.8729 12.8334 32.7689 14.3266 33.3325 16.4559L35.2659 15.9441ZM26.0992 8.4C23.4519 8.4 21.1919 9.2931 19.3921 11.0929L20.8063 12.5071C22.2065 11.1069 23.9466 10.4 26.0992 10.4V8.4ZM19.3921 11.0929C17.6042 12.8808 16.6992 15.0686 16.6992 17.6H18.6992C18.6992 15.598 19.3942 13.9192 20.8063 12.5071L19.3921 11.0929ZM16.6992 17.6V46H18.6992V17.6H16.6992ZM18.5728 46.4866L35.1728 16.6866L33.4256 15.7134L16.8256 45.5134L18.5728 46.4866Z" fill="#C20F0F" mask="url(#path-1-outside-1_682_2)"/>
</svg>
