<svg width="61" height="85" viewBox="0 0 61 85" fill="none" xmlns="http://www.w3.org/2000/svg">
<mask id="path-1-outside-1_682_2" maskUnits="userSpaceOnUse" x="0" y="0" width="61" height="85" fill="black">
<rect fill="white" width="61" height="85"/>
<path d="M21.6992 4.99999H38.3992C42.9992 4.99999 46.9326 6.66666 50.1992 10C53.4659 13.2667 55.0992 17.1333 55.0992 21.6V63.4C55.0992 67.9333 53.4326 71.8333 50.0992 75.1C46.8326 78.3667 42.9326 80 38.3992 80H21.6992C17.1659 80 13.2659 78.3667 9.99922 75.1C6.73255 71.7667 5.09922 67.8667 5.09922 63.4V21.6C5.09922 17.1333 6.69922 13.2667 9.89922 10C13.1659 6.66666 17.0992 4.99999 21.6992 4.99999ZM21.8992 64.6C22.2992 66.9333 23.1659 68.7 24.4992 69.9C25.8992 71.0333 27.7659 71.6 30.0992 71.6C32.4326 71.6 34.3992 70.7667 35.9992 69.1C37.5992 67.4333 38.3992 65.5333 38.3992 63.4V35L21.8992 64.6ZM38.2992 20.2C37.0992 15.6667 34.3659 13.4 30.0992 13.4C27.6992 13.4 25.6992 14.2 24.0992 15.8C22.4992 17.4 21.6992 19.3333 21.6992 21.6V50L38.2992 20.2Z"/>
</mask>
<path d="M50.1992 10L46.6282 13.4996L46.6458 13.5177L46.6637 13.5355L50.1992 10ZM50.0992 75.1L46.5996 71.5289L46.5815 71.5466L46.5637 71.5645L50.0992 75.1ZM9.99922 75.1L6.42815 78.5996L6.44583 78.6177L6.46369 78.6355L9.99922 75.1ZM9.89922 10L6.32815 6.50035L6.32742 6.5011L9.89922 10ZM21.8992 64.6L17.5319 62.1655L16.6731 63.7062L16.9711 65.4448L21.8992 64.6ZM24.4992 69.9L21.1544 73.6165L21.2516 73.7039L21.3532 73.7862L24.4992 69.9ZM35.9992 69.1L32.3923 65.6373L32.3923 65.6373L35.9992 69.1ZM38.3992 35H43.3992V15.7612L34.0319 32.5655L38.3992 35ZM38.2992 20.2L42.6672 22.6332L43.649 20.8708L43.1327 18.9205L38.2992 20.2ZM24.0992 15.8L27.6348 19.3355L27.6348 19.3355L24.0992 15.8ZM21.6992 50H16.6992V69.2505L26.0672 52.4332L21.6992 50ZM21.6992 9.99999H38.3992V-5.96046e-06H21.6992V9.99999ZM38.3992 9.99999C41.6337 9.99999 44.2864 11.1101 46.6282 13.4996L53.7703 6.50035C49.5787 2.22319 44.3647 -5.96046e-06 38.3992 -5.96046e-06V9.99999ZM46.6637 13.5355C49.0286 15.9004 50.0992 18.5093 50.0992 21.6H60.0992C60.0992 15.7573 57.9032 10.6329 53.7348 6.46446L46.6637 13.5355ZM50.0992 21.6V63.4H60.0992V21.6H50.0992ZM50.0992 63.4C50.0992 66.5459 49.0051 69.1715 46.5996 71.5289L53.5989 78.6711C57.86 74.4951 60.0992 69.3208 60.0992 63.4H50.0992ZM46.5637 71.5645C44.2147 73.9135 41.5784 75 38.3992 75V85C44.2867 85 49.4505 82.8198 53.6348 78.6355L46.5637 71.5645ZM38.3992 75H21.6992V85H38.3992V75ZM21.6992 75C18.5201 75 15.8838 73.9135 13.5348 71.5645L6.46369 78.6355C10.648 82.8198 15.8117 85 21.6992 85V75ZM13.5703 71.6004C11.1739 69.155 10.0992 66.4943 10.0992 63.4H0.0992194C0.0992194 69.2391 2.29123 74.3783 6.42815 78.5996L13.5703 71.6004ZM10.0992 63.4V21.6H0.0992194V63.4H10.0992ZM10.0992 21.6C10.0992 18.4759 11.1622 15.8558 13.471 13.4989L6.32742 6.5011C2.23626 10.6775 0.0992194 15.7908 0.0992194 21.6H10.0992ZM13.4703 13.4996C15.812 11.1101 18.4647 9.99999 21.6992 9.99999V-5.96046e-06C15.7337 -5.96046e-06 10.5198 2.22319 6.32815 6.50035L13.4703 13.4996ZM16.9711 65.4448C17.5001 68.5308 18.7521 71.4544 21.1544 73.6165L27.844 66.1835C27.5797 65.9456 27.0983 65.3358 26.8273 63.7552L16.9711 65.4448ZM21.3532 73.7862C23.8775 75.8297 26.9632 76.6 30.0992 76.6V66.6C28.5686 66.6 27.921 66.237 27.6452 66.0138L21.3532 73.7862ZM30.0992 76.6C33.7787 76.6 37.0527 75.2225 39.6062 72.5627L32.3923 65.6373C31.7457 66.3109 31.0864 66.6 30.0992 66.6V76.6ZM39.6062 72.5627C42.0187 70.0496 43.3992 66.937 43.3992 63.4H33.3992C33.3992 64.1297 33.1797 64.8171 32.3923 65.6373L39.6062 72.5627ZM43.3992 63.4V35H33.3992V63.4H43.3992ZM34.0319 32.5655L17.5319 62.1655L26.2665 67.0345L42.7665 37.4345L34.0319 32.5655ZM43.1327 18.9205C42.3509 15.9671 40.9307 13.233 38.5409 11.2512C36.1052 9.23138 33.1535 8.4 30.0992 8.4V18.4C31.3116 18.4 31.8599 18.702 32.1575 18.9488C32.5011 19.2337 33.0475 19.8996 33.4657 21.4795L43.1327 18.9205ZM30.0992 8.4C26.4624 8.4 23.1627 9.66549 20.5637 12.2645L27.6348 19.3355C28.2358 18.7345 28.936 18.4 30.0992 18.4V8.4ZM20.5637 12.2645C18.0242 14.804 16.6992 18.0098 16.6992 21.6H26.6992C26.6992 20.6568 26.9743 19.996 27.6348 19.3355L20.5637 12.2645ZM16.6992 21.6V50H26.6992V21.6H16.6992ZM26.0672 52.4332L42.6672 22.6332L33.9312 17.7668L17.3312 47.5668L26.0672 52.4332Z" fill="#C20F0F" mask="url(#path-1-outside-1_682_2)"/>
</svg>
