<svg viewBox="0 0 1153 1191" fill="none" xmlns="http://www.w3.org/2000/svg">
    <path d="M3.5 756.356V609.421L406.307 369.5L661.494 857.776L3.5 756.356Z" fill="#A045AD" stroke="black"
        stroke-width="5" />
    <path d="M2.5 2.5H397.759L289.757 413.912L2.5 578.19V2.5Z" fill="#A045AD" stroke="black" stroke-width="5" />
    <path d="M768.638 629.104L711.803 374.583L1150 65.8198V763.964L768.638 629.104Z" fill="#A045AD" stroke="black"
        stroke-width="5" />
    <path d="M371.358 181.5L424.224 4.95612L1009.9 138.177L947.22 181.5H371.358Z" stroke="#D9D9D9" stroke-width="5" />
    <path d="M331.231 351.5L366.435 215.694H888.847L688.233 351.5H331.231Z" stroke="#D9D9D9" stroke-width="5" />
    <path d="M732.43 624.468L677.612 842.123L426.21 372.566L676.453 376.469L732.43 624.468Z" stroke="#D9D9D9"
        stroke-width="5" />
    <path d="M699.064 874.079L759.716 642.811L963.135 718.91L758.925 1177.28L699.064 874.079Z" stroke="#D9D9D9"
        stroke-width="5" />
    <path
        d="M591.837 945.144L216.985 811.905L675.9 881.709L736.247 1177.27L593.125 946.184L592.664 945.438L591.837 945.144Z"
        stroke="#D9D9D9" stroke-width="5" />
</svg>