<svg width="39" height="558" viewBox="0 0 39 558" fill="none" xmlns="http://www.w3.org/2000/svg">
<path d="M0 552.095L0 558H39V552.095H0Z" fill="#D9D9D9"/>
<path d="M0 546.19L0 549.143H39V546.19H0Z" fill="#D9D9D9"/>
<path d="M0 537.333L0 540.285H39V537.333H0Z" fill="#D9D9D9"/>
<path d="M0 522.571L0 525.524H39V522.571H0Z" fill="#D9D9D9"/>
<path d="M0 513.714L0 519.619H39V513.714H0Z" fill="#D9D9D9"/>
<path d="M0 501.904L0 504.857H39V501.904H0Z" fill="#D9D9D9"/>
<path d="M0 490.095L0 493.047H39V490.095H0Z" fill="#D9D9D9"/>
<path d="M0 481.238L0 487.143H39V481.238H0Z" fill="#D9D9D9"/>
<path d="M0 472.38L0 475.333H39V472.38H0Z" fill="#D9D9D9"/>
<path d="M0 457.619L0 460.572H39V457.619H0Z" fill="#D9D9D9"/>
<path d="M0 442.857L0 454.667H39V442.857H0Z" fill="#D9D9D9"/>
<path d="M0 434L0 436.952H39V434H0Z" fill="#D9D9D9"/>
<path d="M0 425.143L0 428.095H39V425.143H0Z" fill="#D9D9D9"/>
<path d="M0 407.428L0 413.333H39V407.428H0Z" fill="#D9D9D9"/>
<path d="M0 401.524L0 404.476H39V401.524H0Z" fill="#D9D9D9"/>
<path d="M0 392.667L0 395.619H39V392.667H0Z" fill="#D9D9D9"/>
<path d="M0 380.857L0 386.762H39V380.857H0Z" fill="#D9D9D9"/>
<path d="M0 374.952L0 377.905H39V374.952H0Z" fill="#D9D9D9"/>
<path d="M0 357.238L0 363.142H39V357.238H0Z" fill="#D9D9D9"/>
<path d="M0 342.476L0 345.428H39V342.476H0Z" fill="#D9D9D9"/>
<path d="M0 336.571L0 339.524H39V336.571H0Z" fill="#D9D9D9"/>
<path d="M0 327.714L0 330.667H39V327.714H0Z" fill="#D9D9D9"/>
<path d="M0 318.857L0 324.761H39V318.857H0Z" fill="#D9D9D9"/>
<path d="M0 310L0 312.952H39V310H0Z" fill="#D9D9D9"/>
<path d="M0 295.238L0 298.19H39V295.238H0Z" fill="#D9D9D9"/>
<path d="M0 280.476L0 283.428H39V280.476H0Z" fill="#D9D9D9"/>
<path d="M0 268.667L0 274.571H39V268.667H0Z" fill="#D9D9D9"/>
<path d="M0 259.809L0 265.714H39V259.809H0Z" fill="#D9D9D9"/>
<path d="M0 250.952L0 256.857H39V250.952H0Z" fill="#D9D9D9"/>
<path d="M0 239.143L0 245.048H39V239.143H0Z" fill="#D9D9D9"/>
<path d="M0 230.286L0 233.238H39V230.286H0Z" fill="#D9D9D9"/>
<path d="M0 221.428L0 224.381H39V221.428H0Z" fill="#D9D9D9"/>
<path d="M0 203.714L0 209.619H39V203.714H0Z" fill="#D9D9D9"/>
<path d="M0 194.857L0 200.761H39V194.857H0Z" fill="#D9D9D9"/>
<path d="M0 186L0 191.904H39V186H0Z" fill="#D9D9D9"/>
<path d="M0 171.238L0 183.047H39V171.238H0Z" fill="#D9D9D9"/>
<path d="M0 162.381L0 168.286H39V162.381H0Z" fill="#D9D9D9"/>
<path d="M0 153.524L0 159.428H39V153.524H0Z" fill="#D9D9D9"/>
<path d="M0 141.714L0 147.619H39V141.714H0Z" fill="#D9D9D9"/>
<path d="M0 124L0 135.809H39V124H0Z" fill="#D9D9D9"/>
<path d="M0 112.19L0 121.047L39 121.047V112.19H0Z" fill="#D9D9D9"/>
<path d="M0 106.285L0 109.238L39 109.238V106.285L0 106.285Z" fill="#D9D9D9"/>
<path d="M0 100.381L0 103.333L39 103.333V100.381L0 100.381Z" fill="#D9D9D9"/>
<path d="M0 91.5232L0 97.428L39 97.428V91.5232H0Z" fill="#D9D9D9"/>
<path d="M0 82.6663L0 85.6187L39 85.6187V82.6663L0 82.6663Z" fill="#D9D9D9"/>
<path d="M0 67.9048L0 70.8572L39 70.8572V67.9048L0 67.9048Z" fill="#D9D9D9"/>
<path d="M0 53.1429L0 64.9524L39 64.9524V53.1429L0 53.1429Z" fill="#D9D9D9"/>
<path d="M0 47.238L0 50.1904L39 50.1904V47.238L0 47.238Z" fill="#D9D9D9"/>
<path d="M0 32.4761L0 38.3809L39 38.3809V32.4761L0 32.4761Z" fill="#D9D9D9"/>
<path d="M0 14.7615L0 23.6187L39 23.6187V14.7615L0 14.7615Z" fill="#D9D9D9"/>
<path d="M0 8.8567L0 11.8091L39 11.8091V8.8567L0 8.8567Z" fill="#D9D9D9"/>
<path d="M0 2.38419e-05L0 5.90479L39 5.90479V2.38419e-05L0 2.38419e-05Z" fill="#D9D9D9"/>
</svg>
